M48
; DRILL file KiCad 10.0.3 date 2026-06-12T09:55:42
; FORMAT={-:-/ absolute / metric / decimal}
; #@! TF.CreationDate,2026-06-12T09:55:42+05:30
; #@! TF.GenerationSoftware,Kicad,Pcbnew,10.0.3
; #@! TF.FileFunction,Plated,1,2,PTH
FMAT,2
METRIC
; #@! TA.AperFunction,Plated,PTH,ViaDrill
T1C0.300
; #@! TA.AperFunction,Plated,PTH,ComponentDrill
T2C0.800
; #@! TA.AperFunction,Plated,PTH,ComponentDrill
T3C1.500
%
G90
G05
T1
X103.262Y-94.537
X103.6Y-96.6
X103.6Y-98.5
X104.515Y-91.0
X105.137Y-93.6
X106.45Y-96.87
X106.45Y-99.41
X107.2Y-81.15
X107.2Y-86.6
X107.244Y-93.556
X108.912Y-91.4
X110.062Y-82.35
X110.65Y-86.4
X111.4Y-96.87
X112.044Y-88.556
X112.55Y-86.4
X113.2Y-93.4
X113.912Y-88.6
X115.487Y-94.4
X117.275Y-97.0
X117.312Y-92.2
X117.312Y-94.4
X117.425Y-82.0
X117.425Y-83.7
X117.425Y-85.4
X117.425Y-87.1
X121.0Y-99.0
X125.0Y-99.0
X130.8Y-92.438
T2
X100.8Y-81.35
X100.8Y-98.4
X121.06Y-94.2
X123.6Y-94.2
X126.14Y-94.2
X146.795Y-82.46
X146.795Y-85.0
X146.795Y-87.54
X152.8Y-81.4
X152.8Y-88.4
T3
X135.045Y-88.4
X142.155Y-88.4
M30
